#!OML:ASF E:\motion texture\Top Level 1\Subject 1\Session 1\male.ASF
:FULLY-SPECIFIED
:DEGREES
300
root 17.5537 17.5743 4.6308 94.5229 -80.5166 -85.964
lowerback -2.49223 3.98474 4.33686
upperback 0.69766 5.24107 -3.92479
thorax 2.88263 2.72213 -6.22308
lowerneck -7.40841 12.1701 3.88882
upperneck 24.2768 18.0389 -9.12177
head 10.1737 7.54357 -1.75031
rclavicle 3.57812e-015 -1.27222e-014
rhumerus -20.9963 0.272345 -88.399
rradius 30.1193
rwrist 13.271
rhand -12.1294 -22.3404
rfingers 7.12502
rthumb 13.9323 -51.8536
lclavicle 3.57812e-015 -1.27222e-014
lhumerus -22.5513 31.0354 65.7058
lradius 31.0861
lwrist -26.3901
lhand -17.5804 28.4026
lfingers 7.12502
lthumb 8.67526 58.2043
rfemur -2.35185 1.82143 32.9145
rtibia 31.9567
rfoot -11.0951 -14.6665
rtoes -8.56392
lfemur -32.0249 -3.10096 -0.645203
ltibia 19.832
lfoot -3.58904 3.06427
ltoes -11.1898
301
root 17.4096 17.576 4.65634 94.5561 -80.6503 -86.0797
lowerback -2.4498 4.0051 4.15613
upperback 0.710124 5.27511 -4.02797
thorax 2.87001 2.73612 -6.22962
lowerneck -7.44784 12.2259 3.93326
upperneck 24.5746 18.1281 -9.09024
head 10.2985 7.56886 -1.72863
rclavicle -8.34896e-014 2.70347e-014
rhumerus -21.1539 0.40639 -88.6378
rradius 30.1907
rwrist 13.3538
rhand -11.9667 -22.22
rfingers 7.12502
rthumb 14.0891 -51.7224
lclavicle -8.34896e-014 2.70347e-014
lhumerus -22.6805 31.121 65.4857
lradius 30.799
lwrist -26.7809
lhand -17.5694 28.1887
lfingers 7.12502
lthumb 8.68585 57.99
rfemur -2.64776 1.54039 32.6311
rtibia 33.1538
rfoot -10.3608 -14.8025
rtoes -8.33686
lfemur -31.8534 -3.15933 -0.996096
ltibia 20.353
lfoot -3.58771 2.72575
ltoes -10.643
302
root 17.2658 17.5786 4.68137 94.5597 -80.7868 -86.1705
lowerback -2.4065 4.02176 3.96165
upperback 0.734394 5.30435 -4.13062
thorax 2.86706 2.74787 -6.22784
lowerneck -7.49703 12.2881 3.97033
upperneck 24.8681 18.228 -9.06188
head 10.4248 7.59776 -1.7047
rclavicle -6.75868e-015 -4.29375e-014
rhumerus -21.2994 0.551715 -88.8675
rradius 30.2569
rwrist 13.4345
rhand -11.8028 -22.1028
rfingers 7.12502
rthumb 14.247 -51.5941
lclavicle -6.75868e-015 -4.29375e-014
lhumerus -22.7747 31.179 65.2744
lradius 30.5103
lwrist -27.1868
lhand -17.5573 27.9464
lfingers 7.12502
lthumb 8.69759 57.7472
rfemur -2.98837 1.23604 32.3434
rtibia 34.3906
rfoot -9.57847 -14.9563
rtoes -8.00928
lfemur -31.6589 -3.21914 -1.35417
ltibia 20.887
lfoot -3.61183 2.39143
ltoes -10.0925
303
root 17.1224 17.5821 4.7058 94.5135 -80.9264 -86.2162
lowerback -2.34456 4.03684 3.7611
upperback 0.756235 5.33163 -4.23975
thorax 2.85083 2.75807 -6.23106
lowerneck -7.54493 12.3544 4.007
upperneck 25.1666 18.3319 -9.02526
head 10.5529 7.62888 -1.67726
rclavicle -3.18055e-014 -8.11041e-014
rhumerus -21.4564 0.691373 -89.0939
rradius 30.3222
rwrist 13.5107
rhand -11.6359 -21.9868
rfingers 7.12502
rthumb 14.4078 -51.4667
lclavicle -3.18055e-014 -8.11041e-014
lhumerus -22.8523 31.1837 65.0577
lradius 30.2256
lwrist -27.5991
lhand -17.5439 27.686
lfingers 7.12502
lthumb 8.71048 57.4863
rfemur -3.37163 0.906571 32.0521
rtibia 35.6606
rfoot -8.754 -15.1275
rtoes -7.58598
lfemur -31.442 -3.28238 -1.71847
ltibia 21.4281
lfoot -3.66176 2.06109
ltoes -9.53578
304
root 16.9795 17.5864 4.72957 94.4221 -81.0681 -86.2201
lowerback -2.27216 4.04943 3.55218
upperback 0.781696 5.35552 -4.35248
thorax 2.83152 2.76635 -6.23428
lowerneck -7.59572 12.4252 4.04066
upperneck 25.4627 18.4421 -8.98667
head 10.6813 7.66263 -1.64747
rclavicle 1.82882e-014 4.77083e-015
rhumerus -21.6129 0.834699 -89.3152
rradius 30.3839
rwrist 13.5788
rhand -11.4905 -21.8757
rfingers 7.12502
rthumb 14.548 -51.3456
lclavicle 1.82882e-014 4.77083e-015
lhumerus -22.907 31.1464 64.8428
lradius 29.948
lwrist -28.0195
lhand -17.5297 27.4084
lfingers 7.12502
lthumb 8.72417 57.2081
rfemur -3.79908 0.553641 31.7592
rtibia 36.9605
rfoot -7.89618 -15.3148
rtoes -7.07368
lfemur -31.2019 -3.34879 -2.0865
ltibia 21.967
lfoot -3.73798 1.73701
ltoes -8.98393
305
root 16.8371 17.5915 4.7526 94.2873 -81.211 -86.1831
lowerback -2.18988 4.0602 3.33549
upperback 0.810396 5.37676 -4.46816
thorax 2.80915 2.77306 -6.23705
lowerneck -7.65038 12.5006 4.06875
upperneck 25.757 18.5584 -8.94358
head 10.8099 7.69893 -1.61399
rclavicle 2.18663e-014 -2.8625e-014
rhumerus -21.7687 0.978655 -89.5294
rradius 30.4426
rwrist 13.6424
rhand -11.3364 -21.7744
rfingers 7.12502
rthumb 14.6964 -51.2335
lclavicle 2.18663e-014 -2.8625e-014
lhumerus -22.9397 31.0693 64.6309
lradius 29.6796
lwrist -28.4484
lhand -17.5105 27.1088
lfingers 7.12502
lthumb 8.74275 56.9077
rfemur -4.27049 0.179572 31.4672
rtibia 38.2846
rfoot -7.01439 -15.5171
rtoes -6.47562
lfemur -30.9381 -3.4195 -2.45501
ltibia 22.4958
lfoot -3.83979 1.42202
ltoes -8.43642
306
root 16.6954 17.5973 4.77481 94.1076 -81.3537 -86.1032
lowerback -2.09768 4.06907 3.11352
upperback 0.841678 5.39506 -4.58755
thorax 2.7833 2.77808 -6.24164
lowerneck -7.70698 12.5804 4.09397
upperneck 26.0475 18.6802 -8.8977
head 10.9381 7.73768 -1.57803
rclavicle 2.42517e-014 -4.45278e-014
rhumerus -21.9238 1.1223 -89.7378
rradius 30.498
rwrist 13.7018
rhand -11.1868 -21.6754
rfingers 7.12502
rthumb 14.8405 -51.1239
lclavicle 2.42517e-014 -4.45278e-014
lhumerus -22.953 30.9485 64.4214
lradius 29.4243
lwrist -28.8772
lhand -17.4866 26.8024
lfingers 7.12502
lthumb 8.76576 56.6004
rfemur -4.78453 -0.215462 31.1785
rtibia 39.6265
rfoot -6.11932 -15.7325
rtoes -5.80335
lfemur -30.6499 -3.49336 -2.82179
ltibia 23.0065
lfoot -3.96523 1.11625
ltoes -7.89399
307
root 16.5545 17.6037 4.79617 93.8822 -81.496 -85.978
lowerback -2.00745 4.07503 2.87845
upperback 0.884925 5.40925 -4.70383
thorax 2.7688 2.78111 -6.23532
lowerneck -7.77515 12.665 4.10918
upperneck 26.3288 18.8113 -8.85632
head 11.0661 7.77918 -1.5398
rclavicle 2.26615e-014 -5.56597e-014
rhumerus -22.0616 1.27801 -89.9322
rradius 30.5477
rwrist 13.7542
rhand -11.0518 -21.5742
rfingers 7.12502
rthumb 14.9706 -51.0131
lclavicle 2.26615e-014 -5.56597e-014
lhumerus -22.9373 30.8052 64.2277
lradius 29.1836
lwrist -29.304
lhand -17.4585 26.4849
lfingers 7.12502
lthumb 8.79294 56.2818
rfemur -5.34288 -0.629333 30.8949
rtibia 40.9827
rfoot -5.22306 -15.9597
rtoes -5.0639
lfemur -30.3377 -3.57037 -3.18497
ltibia 23.4913
lfoot -4.11342 0.821339
ltoes -7.35664
308
root 16.4144 17.6108 4.8166 93.6057 -81.636 -85.8021
lowerback -1.91007 4.08022 2.63875
upperback 0.931126 5.42187 -4.82198
thorax 2.75284 2.78314 -6.22892
lowerneck -7.8437 12.7525 4.12048
upperneck 26.6034 18.9461 -8.81395
head 11.192 7.82231 -1.49985
rclavicle 3.61788e-014 -3.33958e-014
rhumerus -22.1974 1.43125 -90.117
rradius 30.5947
rwrist 13.8026
rhand -10.9276 -21.4791
rfingers 7.12502
rthumb 15.0902 -50.9091
lclavicle 3.61788e-014 -3.33958e-014
lhumerus -22.905 30.6189 64.0406
lradius 28.961
lwrist -29.7162
lhand -17.4285 26.1638
lfingers 7.12502
lthumb 8.82188 55.9594
rfemur -5.94298 -1.06206 30.6192
rtibia 42.3447
rfoot -4.33833 -16.1969
rtoes -4.2716
lfemur -30.0019 -3.65131 -3.54168
ltibia 23.9459
lfoot -4.28623 0.537299
ltoes -6.83556
309
root 16.2751 17.6185 4.83609 93.2661 -81.7735 -85.5623
lowerback -1.79856 4.0851 2.3991
upperback 0.973556 5.43321 -4.9451
thorax 2.72533 2.78412 -6.22915
lowerneck -7.90695 12.8422 4.13041
upperneck 26.8749 19.0825 -8.76581
head 11.3157 7.86681 -1.45761
rclavicle 5.56597e-015 1.59028e-015
rhumerus -22.3411 1.57612 -90.2956
rradius 30.6405
rwrist 13.8454
rhand -10.8076 -21.3901
rfingers 7.12502
rthumb 15.2059 -50.8113
lclavicle 5.56597e-015 1.59028e-015
lhumerus -22.8669 30.3825 63.852
lradius 28.7595
lwrist -30.1073
lhand -17.3914 25.8457
lfingers 7.12502
lthumb 8.85766 55.6398
rfemur -6.58235 -1.51434 30.3528
rtibia 43.7048
rfoot -3.47931 -16.4426
rtoes -3.44169
lfemur -29.6439 -3.7359 -3.89163
ltibia 24.3673
lfoot -4.48223 0.264416
ltoes -6.33384
